ply
format ascii 1.0
comment VCGLIB generated
element vertex 422
property float x
property float y
property float z
property float quality
element face 840
property list uchar int vertex_indices
end_header
0 0 -2.54 0.2836301 
0.1 0.5 -2.5 0.293964 
0.2 0.48 -2.5 0.4655364 
0.3 0.42 -2.5 0.3925982 
0.38 0.34 -2.5 0.3311927 
0.44 0.26 -2.5 0.3092997 
0.5 0.16 -2.5 0.480128 
0.52 0.04 -2.5 0.3442319 
0.52 -0.06 -2.5 0.3524185 
0.5 -0.18 -2.5 0.4703464 
0.44 -0.28 -2.5 0.3084594 
0.38 -0.36 -2.5 0.3337969 
0.3 -0.44 -2.5 0.3914555 
0.2 -0.5 -2.5 0.4443383 
0.1 -0.52 -2.5 0.2466969 
0 -0.54 -2.5 0.4753191 
-0.12 -0.52 -2.5 0.2599423 
-0.22 -0.5 -2.5 0.4645123 
-0.32 -0.44 -2.5 0.3916795 
-0.4 -0.36 -2.5 0.3311017 
-0.46 -0.28 -2.5 0.3089203 
-0.52 -0.18 -2.5 0.4787438 
-0.54 -0.06 -2.5 0.3439977 
-0.54 0.04 -2.5 0.3518634 
-0.52 0.16 -2.5 0.4696938 
-0.46 0.26 -2.5 0.3081051 
-0.4 0.34 -2.5 0.3338551 
-0.32 0.42 -2.5 0.3919601 
-0.22 0.48 -2.5 0.4443582 
-0.12 0.5 -2.5 0.246475 
-0.02 0.52 -2.5 0.4761864 
0.2 1 -2.34 0.3762475 
0.42 0.9400001 -2.34 0.4951205 
0.6 0.82 -2.34 0.3658757 
0.76 0.68 -2.34 0.4566251 
0.8800001 0.5 -2.34 0.3595633 
0.98 0.3 -2.34 0.4611927 
1.02 0.1 -2.34 0.405436 
1.02 -0.12 -2.34 0.4119929 
0.98 -0.32 -2.34 0.4597818 
0.8800001 -0.52 -2.34 0.3553923 
0.76 -0.7 -2.34 0.4562976 
0.6 -0.8400001 -2.34 0.3656403 
0.42 -0.96 -2.34 0.4810416 
0.2 -1.02 -2.34 0.3835748 
0 -1.04 -2.34 0.3944643 
-0.22 -1.02 -2.34 0.380544 
-0.44 -0.96 -2.34 0.4951192 
-0.6200001 -0.8400001 -2.34 0.3658771 
-0.78 -0.7 -2.34 0.4566249 
-0.9 -0.52 -2.34 0.3595626 
-1 -0.32 -2.34 0.461193 
-1.04 -0.12 -2.34 0.405436 
-1.04 0.1 -2.34 0.4119927 
-1 0.3 -2.34 0.4597821 
-0.9 0.5 -2.34 0.3553917 
-0.78 0.68 -2.34 0.4562981 
-0.6200001 0.82 -2.34 0.3656399 
-0.44 0.9400001 -2.34 0.4810424 
-0.22 1 -2.34 0.3835744 
-0.02 1.02 -2.34 0.3944642 
0.3 1.46 -2.06 0.415868 
0.6 1.36 -2.06 0.3863991 
0.8600001 1.2 -2.06 0.3343705 
1.1 0.98 -2.06 0.3334937 
1.28 0.74 -2.06 0.3924972 
1.4 0.46 -2.06 0.3288079 
1.48 0.14 -2.06 0.4172515 
1.48 -0.16 -2.06 0.4036975 
1.4 -0.48 -2.06 0.3223503 
1.28 -0.76 -2.06 0.38461 
1.1 -1 -2.06 0.3289116 
0.8600001 -1.22 -2.06 0.3463587 
0.6 -1.38 -2.06 0.3873843 
0.3 -1.48 -2.06 0.4148291 
0 -1.5 -2.06 0.3091184 
-0.32 -1.48 -2.06 0.415868 
-0.6200001 -1.38 -2.06 0.3863995 
-0.8800001 -1.22 -2.06 0.3343705 
-1.12 -1 -2.06 0.3334936 
-1.3 -0.76 -2.06 0.3924973 
-1.42 -0.48 -2.06 0.3288079 
-1.5 -0.16 -2.06 0.4172515 
-1.5 0.14 -2.06 0.4036975 
-1.42 0.46 -2.06 0.3223503 
-1.3 0.74 -2.06 0.3846099 
-1.12 0.98 -2.06 0.3289116 
-0.8800001 1.2 -2.06 0.3463589 
-0.6200001 1.36 -2.06 0.3873842 
-0.32 1.46 -2.06 0.4148289 
-0.02 1.48 -2.06 0.3091184 
0.38 1.84 -1.7 0.3764709 
0.76 1.72 -1.7 0.3986039 
1.1 1.52 -1.7 0.3773591 
1.4 1.26 -1.7 0.4395676 
1.62 0.9400001 -1.7 0.3602977 
1.78 0.58 -1.7 0.3774325 
1.86 0.18 -1.7 0.3390788 
1.86 -0.2 -1.7 0.3362311 
1.78 -0.6 -1.7 0.3784662 
1.62 -0.96 -1.7 0.362657 
1.4 -1.28 -1.7 0.4459388 
1.1 -1.54 -1.7 0.3797975 
0.76 -1.74 -1.7 0.4002245 
0.38 -1.86 -1.7 0.3803636 
0 -1.9 -1.7 0.3868878 
-0.4 -1.86 -1.7 0.3787959 
-0.78 -1.74 -1.7 0.398604 
-1.12 -1.54 -1.7 0.377359 
-1.42 -1.28 -1.7 0.4395676 
-1.64 -0.96 -1.7 0.3602974 
-1.8 -0.6 -1.7 0.3774326 
-1.88 -0.2 -1.7 0.3390787 
-1.88 0.18 -1.7 0.3362312 
-1.8 0.58 -1.7 0.378466 
-1.64 0.9400001 -1.7 0.3626572 
-1.42 1.26 -1.7 0.4459386 
-1.12 1.52 -1.7 0.3797975 
-0.78 1.72 -1.7 0.4002246 
-0.4 1.84 -1.7 0.3803636 
-0.02 1.88 -1.7 0.3868878 
0.44 2.14 -1.28 0.3773112 
0.8800001 2 -1.28 0.399054 
1.28 1.76 -1.28 0.3631296 
1.62 1.46 -1.28 0.3858151 
1.9 1.08 -1.28 0.4095141 
2.08 0.66 -1.28 0.3722484 
2.18 0.22 -1.28 0.4104624 
2.18 -0.24 -1.28 0.4204273 
2.08 -0.68 -1.28 0.3817491 
1.9 -1.1 -1.28 0.4170819 
1.62 -1.48 -1.28 0.3933613 
1.28 -1.78 -1.28 0.3522962 
0.8800001 -2.02 -1.28 0.387497 
0.44 -2.16 -1.28 0.3833507 
0 -2.2 -1.28 0.345576 
-0.46 -2.16 -1.28 0.3777314 
-0.9 -2.02 -1.28 0.3990536 
-1.3 -1.78 -1.28 0.3631296 
-1.64 -1.48 -1.28 0.3858151 
-1.92 -1.1 -1.28 0.4095142 
-2.1 -0.68 -1.28 0.3722483 
-2.2 -0.24 -1.28 0.4104624 
-2.2 0.22 -1.28 0.4204274 
-2.1 0.66 -1.28 0.3817492 
-1.92 1.08 -1.28 0.4170818 
-1.64 1.46 -1.28 0.3933612 
-1.3 1.76 -1.28 0.3522962 
-0.9 2 -1.28 0.3874969 
-0.46 2.14 -1.28 0.3833511 
-0.02 2.18 -1.28 0.3455762 
0.5 2.36 -0.8 0.4485332 
0.98 2.2 -0.8 0.4262317 
1.4 1.94 -0.8 0.3475893 
1.78 1.6 -0.8 0.3755338 
2.08 1.2 -0.8 0.3999398 
2.28 0.74 -0.8 0.3480394 
2.4 0.24 -0.8 0.4401113 
2.4 -0.26 -0.8 0.4278606 
2.28 -0.76 -0.8 0.3424816 
2.08 -1.22 -0.8 0.4095839 
1.78 -1.62 -0.8 0.3682505 
1.4 -1.96 -0.8 0.345368 
0.98 -2.22 -0.8 0.4352604 
0.5 -2.38 -0.8 0.4473007 
0 -2.42 -0.8 0.3494037 
-0.52 -2.38 -0.8 0.4524277 
-1 -2.22 -0.8 0.4262314 
-1.42 -1.96 -0.8 0.3475893 
-1.8 -1.62 -0.8 0.3755337 
-2.1 -1.22 -0.8 0.3999397 
-2.3 -0.76 -0.8 0.3480394 
-2.42 -0.26 -0.8 0.4401113 
-2.42 0.24 -0.8 0.4278607 
-2.3 0.74 -0.8 0.3424816 
-2.1 1.2 -0.8 0.409584 
-1.8 1.6 -0.8 0.3682506 
-1.42 1.94 -0.8 0.345368 
-1 2.2 -0.8 0.4352608 
-0.52 2.36 -0.8 0.4472995 
-0.02 2.4 -0.8 0.3494043 
0.52 2.46 -0.28 0.3740221 
1.02 2.3 -0.28 0.3792132 
1.48 2.04 -0.28 0.4416867 
1.86 1.68 -0.28 0.3602594 
2.18 1.26 -0.28 0.4105556 
2.4 0.78 -0.28 0.439841 
2.5 0.26 -0.28 0.3696586 
2.5 -0.28 -0.28 0.3563962 
2.4 -0.8 -0.28 0.4314024 
2.18 -1.28 -0.28 0.4182659 
1.86 -1.7 -0.28 0.3541865 
1.48 -2.06 -0.28 0.4439966 
1.02 -2.32 -0.28 0.3946584 
0.52 -2.48 -0.28 0.3681468 
0 -2.54 -0.28 0.408425 
-0.54 -2.48 -0.28 0.376668 
-1.04 -2.32 -0.28 0.3792131 
-1.5 -2.06 -0.28 0.4416866 
-1.88 -1.7 -0.28 0.3602598 
-2.2 -1.28 -0.28 0.4105555 
-2.42 -0.8 -0.28 0.4398411 
-2.52 -0.28 -0.28 0.3696586 
-2.52 0.26 -0.28 0.3563962 
-2.42 0.78 -0.28 0.4314024 
-2.2 1.26 -0.28 0.4182661 
-1.88 1.68 -0.28 0.3541861 
-1.5 2.04 -0.28 0.4439968 
-1.04 2.3 -0.28 0.3946583 
-0.54 2.46 -0.28 0.3681471 
-0.02 2.52 -0.28 0.4084252 
0.52 2.46 0.26 0.3696521 
1.02 2.3 0.26 0.3970899 
1.48 2.04 0.26 0.4466138 
1.86 1.68 0.26 0.3558117 
2.18 1.26 0.26 0.4207633 
2.4 0.78 0.26 0.4333615 
2.5 0.26 0.26 0.3585947 
2.5 -0.28 0.26 0.3724326 
2.4 -0.8 0.26 0.4428264 
2.18 -1.28 0.26 0.4134079 
1.86 -1.7 0.26 0.3619126 
1.48 -2.06 0.26 0.4445606 
1.02 -2.32 0.26 0.381971 
0.52 -2.48 0.26 0.3775334 
0 -2.54 0.26 0.4109597 
-0.54 -2.48 0.26 0.3717901 
-1.04 -2.32 0.26 0.3970898 
-1.5 -2.06 0.26 0.4466136 
-1.88 -1.7 0.26 0.3558121 
-2.2 -1.28 0.26 0.4207631 
-2.42 -0.8 0.26 0.4333615 
-2.52 -0.28 0.26 0.3585947 
-2.52 0.26 0.26 0.3724326 
-2.42 0.78 0.26 0.4428263 
-2.2 1.26 0.26 0.4134079 
-1.88 1.68 0.26 0.3619123 
-1.5 2.04 0.26 0.4445608 
-1.04 2.3 0.26 0.3819712 
-0.54 2.46 0.26 0.3775339 
-0.02 2.52 0.26 0.4109599 
0.5 2.36 0.78 0.4489488 
0.98 2.2 0.78 0.4408293 
1.4 1.94 0.78 0.3495153 
1.78 1.6 0.78 0.3729342 
2.08 1.2 0.78 0.4156637 
2.28 0.74 0.78 0.346733 
2.4 0.24 0.78 0.4344865 
2.4 -0.26 0.78 0.4460135 
2.28 -0.76 0.78 0.3534372 
2.08 -1.22 0.78 0.405326 
1.78 -1.62 0.78 0.3803525 
1.4 -1.96 0.78 0.3522579 
0.98 -2.22 0.78 0.4306116 
0.5 -2.38 0.78 0.4592426 
0 -2.42 0.78 0.3537163 
-0.52 -2.38 0.78 0.4518565 
-1 -2.22 0.78 0.440829 
-1.42 -1.96 0.78 0.3495153 
-1.8 -1.62 0.78 0.372934 
-2.1 -1.22 0.78 0.4156637 
-2.3 -0.76 0.78 0.346733 
-2.42 -0.26 0.78 0.4344864 
-2.42 0.24 0.78 0.4460136 
-2.3 0.74 0.78 0.3534372 
-2.1 1.2 0.78 0.4053261 
-1.8 1.6 0.78 0.3803527 
-1.42 1.94 0.78 0.352258 
-1 2.2 0.78 0.430612 
-0.52 2.36 0.78 0.4592411 
-0.02 2.4 0.78 0.3537169 
0.44 2.14 1.26 0.3913137 
0.8800001 2 1.26 0.3976966 
1.28 1.76 1.26 0.360667 
1.62 1.46 1.26 0.4016767 
1.9 1.08 1.26 0.4270357 
2.08 0.66 1.26 0.3880575 
2.18 0.22 1.26 0.4299132 
2.18 -0.24 1.26 0.4185683 
2.08 -0.68 1.26 0.3799699 
1.9 -1.1 1.26 0.4182857 
1.62 -1.48 1.26 0.396054 
1.28 -1.78 1.26 0.3705059 
0.8800001 -2.02 1.26 0.4082571 
0.44 -2.16 1.26 0.3893721 
0 -2.2 1.26 0.3544728 
-0.46 -2.16 1.26 0.3917357 
-0.9 -2.02 1.26 0.397696 
-1.3 -1.78 1.26 0.3606671 
-1.64 -1.48 1.26 0.4016767 
-1.92 -1.1 1.26 0.4270358 
-2.1 -0.68 1.26 0.3880575 
-2.2 -0.24 1.26 0.4299132 
-2.2 0.22 1.26 0.4185684 
-2.1 0.66 1.26 0.3799699 
-1.92 1.08 1.26 0.4182857 
-1.64 1.46 1.26 0.396054 
-1.3 1.76 1.26 0.3705059 
-0.9 2 1.26 0.4082567 
-0.46 2.14 1.26 0.3893725 
-0.02 2.18 1.26 0.3544728 
0.38 1.84 1.68 0.387174 
0.76 1.72 1.68 0.412604 
1.1 1.52 1.68 0.3871411 
1.4 1.26 1.68 0.4593033 
1.62 0.9400001 1.68 0.3729684 
1.78 0.58 1.68 0.3871722 
1.86 0.18 1.68 0.3510047 
1.86 -0.2 1.68 0.3469224 
1.78 -0.6 1.68 0.3902255 
1.62 -0.96 1.68 0.37075 
1.4 -1.28 1.68 0.450089 
1.1 -1.54 1.68 0.3864103 
0.76 -1.74 1.68 0.4099082 
0.38 -1.86 1.68 0.3897294 
0 -1.9 1.68 0.3972305 
-0.4 -1.86 1.68 0.3890949 
-0.78 -1.74 1.68 0.412604 
-1.12 -1.54 1.68 0.3871412 
-1.42 -1.28 1.68 0.4593034 
-1.64 -0.96 1.68 0.372968 
-1.8 -0.6 1.68 0.3871724 
-1.88 -0.2 1.68 0.3510047 
-1.88 0.18 1.68 0.3469224 
-1.8 0.58 1.68 0.3902254 
-1.64 0.9400001 1.68 0.3707504 
-1.42 1.26 1.68 0.450089 
-1.12 1.52 1.68 0.3864103 
-0.78 1.72 1.68 0.4099081 
-0.4 1.84 1.68 0.3897296 
-0.02 1.88 1.68 0.3972305 
0.3 1.46 2.04 0.4274356 
0.6 1.36 2.04 0.4100026 
0.8600001 1.2 2.04 0.3621519 
1.1 0.98 2.04 0.3490182 
1.28 0.74 2.04 0.4058921 
1.4 0.46 2.04 0.3359462 
1.48 0.14 2.04 0.4296396 
1.48 -0.16 2.04 0.4348121 
1.4 -0.48 2.04 0.3451698 
1.28 -0.76 2.04 0.4158046 
1.1 -1 2.04 0.348417 
0.8600001 -1.22 2.04 0.3544447 
0.6 -1.38 2.04 0.404144 
0.3 -1.48 2.04 0.442324 
0 -1.5 2.04 0.3214656 
-0.32 -1.48 2.04 0.4314595 
-0.6200001 -1.38 2.04 0.4100029 
-0.8800001 -1.22 2.04 0.3621519 
-1.12 -1 2.04 0.3490181 
-1.3 -0.76 2.04 0.4058922 
-1.42 -0.48 2.04 0.3359462 
-1.5 -0.16 2.04 0.4296396 
-1.5 0.14 2.04 0.434812 
-1.42 0.46 2.04 0.3451699 
-1.3 0.74 2.04 0.4158045 
-1.12 0.98 2.04 0.3484169 
-0.8800001 1.2 2.04 0.3544449 
-0.6200001 1.36 2.04 0.4041442 
-0.32 1.46 2.04 0.442324 
-0.02 1.48 2.04 0.3214655 
0.2 1 2.32 0.4113886 
0.42 0.9400001 2.32 0.5321161 
0.6 0.82 2.32 0.385921 
0.76 0.68 2.32 0.5021486 
0.8800001 0.5 2.32 0.3726973 
0.98 0.3 2.32 0.5033002 
1.02 0.1 2.32 0.4453338 
1.02 -0.12 2.32 0.436989 
0.98 -0.32 2.32 0.5025707 
0.8800001 -0.52 2.32 0.3799305 
0.76 -0.7 2.32 0.4969044 
0.6 -0.8400001 2.32 0.3864654 
0.42 -0.96 2.32 0.540701 
0.2 -1.02 2.32 0.4086536 
0 -1.04 2.32 0.4277319 
-0.22 -1.02 2.32 0.4085493 
-0.44 -0.96 2.32 0.5321147 
-0.6200001 -0.8400001 2.32 0.3859226 
-0.78 -0.7 2.32 0.5021483 
-0.9 -0.52 2.32 0.3726967 
-1 -0.32 2.32 0.5033005 
-1.04 -0.12 2.32 0.4453339 
-1.04 0.1 2.32 0.4369889 
-1 0.3 2.32 0.5025712 
-0.9 0.5 2.32 0.3799298 
-0.78 0.68 2.32 0.4969047 
-0.6200001 0.82 2.32 0.3864647 
-0.44 0.9400001 2.32 0.5407019 
-0.22 1 2.32 0.4086533 
-0.02 1.02 2.32 0.4277318 
0.1 0.5 2.48 0.2243129 
0.2 0.48 2.48 0.4918385 
0.3 0.42 2.48 0.400641 
0.38 0.34 2.48 0.3231597 
0.44 0.26 2.48 0.2941847 
0.5 0.16 2.48 0.5022462 
0.52 0.04 2.48 0.3417223 
0.52 -0.06 2.48 0.3445963 
0.5 -0.18 2.48 0.5023049 
0.44 -0.28 2.48 0.2915186 
0.38 -0.36 2.48 0.3253235 
0.3 -0.44 2.48 0.400551 
0.2 -0.5 2.48 0.4958267 
0.1 -0.52 2.48 0.1980152 
0 -0.54 2.48 0.5073998 
-0.12 -0.52 2.48 0.2274235 
-0.22 -0.5 2.48 0.4899149 
-0.32 -0.44 2.48 0.3993482 
-0.4 -0.36 2.48 0.3231879 
-0.46 -0.28 2.48 0.2942392 
-0.52 -0.18 2.48 0.5002854 
-0.54 -0.06 2.48 0.3412495 
-0.54 0.04 2.48 0.3441351 
-0.52 0.16 2.48 0.5009768 
-0.46 0.26 2.48 0.2911664 
-0.4 0.34 2.48 0.3253011 
-0.32 0.42 2.48 0.4008436 
-0.22 0.48 2.48 0.4962271 
-0.12 0.5 2.48 0.1970791 
-0.02 0.52 2.48 0.5091146 
0 0 2.54 0.4223864 
3 0 1 2 
3 0 2 3 
3 0 3 4 
3 0 4 5 
3 0 5 6 
3 0 6 7 
3 0 7 8 
3 0 8 9 
3 0 9 10 
3 0 10 11 
3 0 11 12 
3 0 12 13 
3 0 13 14 
3 0 14 15 
3 0 15 16 
3 0 16 17 
3 0 17 18 
3 0 18 19 
3 0 19 20 
3 0 20 21 
3 0 21 22 
3 0 22 23 
3 0 23 24 
3 0 24 25 
3 0 25 26 
3 0 26 27 
3 0 27 28 
3 0 28 29 
3 0 29 30 
3 0 30 1 
3 1 32 2 
3 32 1 31 
3 2 33 3 
3 33 2 32 
3 3 34 4 
3 34 3 33 
3 4 35 5 
3 35 4 34 
3 5 36 6 
3 36 5 35 
3 6 37 7 
3 37 6 36 
3 7 38 8 
3 38 7 37 
3 8 39 9 
3 39 8 38 
3 9 40 10 
3 40 9 39 
3 10 41 11 
3 41 10 40 
3 11 42 12 
3 42 11 41 
3 12 43 13 
3 43 12 42 
3 13 44 14 
3 44 13 43 
3 14 45 15 
3 45 14 44 
3 15 46 16 
3 46 15 45 
3 16 47 17 
3 47 16 46 
3 17 48 18 
3 48 17 47 
3 18 49 19 
3 49 18 48 
3 19 50 20 
3 50 19 49 
3 20 51 21 
3 51 20 50 
3 21 52 22 
3 52 21 51 
3 22 53 23 
3 53 22 52 
3 23 54 24 
3 54 23 53 
3 24 55 25 
3 55 24 54 
3 25 56 26 
3 56 25 55 
3 26 57 27 
3 57 26 56 
3 27 58 28 
3 58 27 57 
3 28 59 29 
3 59 28 58 
3 29 60 30 
3 60 29 59 
3 30 31 1 
3 31 30 60 
3 31 62 32 
3 62 31 61 
3 32 63 33 
3 63 32 62 
3 33 64 34 
3 64 33 63 
3 34 65 35 
3 65 34 64 
3 35 66 36 
3 66 35 65 
3 36 67 37 
3 67 36 66 
3 37 68 38 
3 68 37 67 
3 38 69 39 
3 69 38 68 
3 39 70 40 
3 70 39 69 
3 40 71 41 
3 71 40 70 
3 41 72 42 
3 72 41 71 
3 42 73 43 
3 73 42 72 
3 43 74 44 
3 74 43 73 
3 44 75 45 
3 75 44 74 
3 45 76 46 
3 76 45 75 
3 46 77 47 
3 77 46 76 
3 47 78 48 
3 78 47 77 
3 48 79 49 
3 79 48 78 
3 49 80 50 
3 80 49 79 
3 50 81 51 
3 81 50 80 
3 51 82 52 
3 82 51 81 
3 52 83 53 
3 83 52 82 
3 53 84 54 
3 84 53 83 
3 54 85 55 
3 85 54 84 
3 55 86 56 
3 86 55 85 
3 56 87 57 
3 87 56 86 
3 57 88 58 
3 88 57 87 
3 58 89 59 
3 89 58 88 
3 59 90 60 
3 90 59 89 
3 60 61 31 
3 61 60 90 
3 61 92 62 
3 92 61 91 
3 62 93 63 
3 93 62 92 
3 63 94 64 
3 94 63 93 
3 64 95 65 
3 95 64 94 
3 65 96 66 
3 96 65 95 
3 66 97 67 
3 97 66 96 
3 67 98 68 
3 98 67 97 
3 68 99 69 
3 99 68 98 
3 69 100 70 
3 100 69 99 
3 70 101 71 
3 101 70 100 
3 71 102 72 
3 102 71 101 
3 72 103 73 
3 103 72 102 
3 73 104 74 
3 104 73 103 
3 74 105 75 
3 105 74 104 
3 75 106 76 
3 106 75 105 
3 76 107 77 
3 107 76 106 
3 77 108 78 
3 108 77 107 
3 78 109 79 
3 109 78 108 
3 79 110 80 
3 110 79 109 
3 80 111 81 
3 111 80 110 
3 81 112 82 
3 112 81 111 
3 82 113 83 
3 113 82 112 
3 83 114 84 
3 114 83 113 
3 84 115 85 
3 115 84 114 
3 85 116 86 
3 116 85 115 
3 86 117 87 
3 117 86 116 
3 87 118 88 
3 118 87 117 
3 88 119 89 
3 119 88 118 
3 89 120 90 
3 120 89 119 
3 90 91 61 
3 91 90 120 
3 91 122 92 
3 122 91 121 
3 92 123 93 
3 123 92 122 
3 93 124 94 
3 124 93 123 
3 94 125 95 
3 125 94 124 
3 95 126 96 
3 126 95 125 
3 96 127 97 
3 127 96 126 
3 97 128 98 
3 128 97 127 
3 98 129 99 
3 129 98 128 
3 99 130 100 
3 130 99 129 
3 100 131 101 
3 131 100 130 
3 101 132 102 
3 132 101 131 
3 102 133 103 
3 133 102 132 
3 103 134 104 
3 134 103 133 
3 104 135 105 
3 135 104 134 
3 105 136 106 
3 136 105 135 
3 106 137 107 
3 137 106 136 
3 107 138 108 
3 138 107 137 
3 108 139 109 
3 139 108 138 
3 109 140 110 
3 140 109 139 
3 110 141 111 
3 141 110 140 
3 111 142 112 
3 142 111 141 
3 112 143 113 
3 143 112 142 
3 113 144 114 
3 144 113 143 
3 114 145 115 
3 145 114 144 
3 115 146 116 
3 146 115 145 
3 116 147 117 
3 147 116 146 
3 117 148 118 
3 148 117 147 
3 118 149 119 
3 149 118 148 
3 119 150 120 
3 150 119 149 
3 120 121 91 
3 121 120 150 
3 121 152 122 
3 152 121 151 
3 122 153 123 
3 153 122 152 
3 123 154 124 
3 154 123 153 
3 124 155 125 
3 155 124 154 
3 125 156 126 
3 156 125 155 
3 126 157 127 
3 157 126 156 
3 127 158 128 
3 158 127 157 
3 128 159 129 
3 159 128 158 
3 129 160 130 
3 160 129 159 
3 130 161 131 
3 161 130 160 
3 131 162 132 
3 162 131 161 
3 132 163 133 
3 163 132 162 
3 133 164 134 
3 164 133 163 
3 134 165 135 
3 165 134 164 
3 135 166 136 
3 166 135 165 
3 136 167 137 
3 167 136 166 
3 137 168 138 
3 168 137 167 
3 138 169 139 
3 169 138 168 
3 139 170 140 
3 170 139 169 
3 140 171 141 
3 171 140 170 
3 141 172 142 
3 172 141 171 
3 142 173 143 
3 173 142 172 
3 143 174 144 
3 174 143 173 
3 144 175 145 
3 175 144 174 
3 145 176 146 
3 176 145 175 
3 146 177 147 
3 177 146 176 
3 147 178 148 
3 178 147 177 
3 148 179 149 
3 179 148 178 
3 149 180 150 
3 180 149 179 
3 150 151 121 
3 151 150 180 
3 151 182 152 
3 182 151 181 
3 152 183 153 
3 183 152 182 
3 153 184 154 
3 184 153 183 
3 154 185 155 
3 185 154 184 
3 155 186 156 
3 186 155 185 
3 156 187 157 
3 187 156 186 
3 157 188 158 
3 188 157 187 
3 158 189 159 
3 189 158 188 
3 159 190 160 
3 190 159 189 
3 160 191 161 
3 191 160 190 
3 161 192 162 
3 192 161 191 
3 162 193 163 
3 193 162 192 
3 163 194 164 
3 194 163 193 
3 164 195 165 
3 195 164 194 
3 165 196 166 
3 196 165 195 
3 166 197 167 
3 197 166 196 
3 167 198 168 
3 198 167 197 
3 168 199 169 
3 199 168 198 
3 169 200 170 
3 200 169 199 
3 170 201 171 
3 201 170 200 
3 171 202 172 
3 202 171 201 
3 172 203 173 
3 203 172 202 
3 173 204 174 
3 204 173 203 
3 174 205 175 
3 205 174 204 
3 175 206 176 
3 206 175 205 
3 176 207 177 
3 207 176 206 
3 177 208 178 
3 208 177 207 
3 178 209 179 
3 209 178 208 
3 179 210 180 
3 210 179 209 
3 180 181 151 
3 181 180 210 
3 181 212 182 
3 212 181 211 
3 182 213 183 
3 213 182 212 
3 183 214 184 
3 214 183 213 
3 184 215 185 
3 215 184 214 
3 185 216 186 
3 216 185 215 
3 186 217 187 
3 217 186 216 
3 187 218 188 
3 218 187 217 
3 188 219 189 
3 219 188 218 
3 189 220 190 
3 220 189 219 
3 190 221 191 
3 221 190 220 
3 191 222 192 
3 222 191 221 
3 192 223 193 
3 223 192 222 
3 193 224 194 
3 224 193 223 
3 194 225 195 
3 225 194 224 
3 195 226 196 
3 226 195 225 
3 196 227 197 
3 227 196 226 
3 197 228 198 
3 228 197 227 
3 198 229 199 
3 229 198 228 
3 199 230 200 
3 230 199 229 
3 200 231 201 
3 231 200 230 
3 201 232 202 
3 232 201 231 
3 202 233 203 
3 233 202 232 
3 203 234 204 
3 234 203 233 
3 204 235 205 
3 235 204 234 
3 205 236 206 
3 236 205 235 
3 206 237 207 
3 237 206 236 
3 207 238 208 
3 238 207 237 
3 208 239 209 
3 239 208 238 
3 209 240 210 
3 240 209 239 
3 210 211 181 
3 211 210 240 
3 211 242 212 
3 242 211 241 
3 212 243 213 
3 243 212 242 
3 213 244 214 
3 244 213 243 
3 214 245 215 
3 245 214 244 
3 215 246 216 
3 246 215 245 
3 216 247 217 
3 247 216 246 
3 217 248 218 
3 248 217 247 
3 218 249 219 
3 249 218 248 
3 219 250 220 
3 250 219 249 
3 220 251 221 
3 251 220 250 
3 221 252 222 
3 252 221 251 
3 222 253 223 
3 253 222 252 
3 223 254 224 
3 254 223 253 
3 224 255 225 
3 255 224 254 
3 225 256 226 
3 256 225 255 
3 226 257 227 
3 257 226 256 
3 227 258 228 
3 258 227 257 
3 228 259 229 
3 259 228 258 
3 229 260 230 
3 260 229 259 
3 230 261 231 
3 261 230 260 
3 231 262 232 
3 262 231 261 
3 232 263 233 
3 263 232 262 
3 233 264 234 
3 264 233 263 
3 234 265 235 
3 265 234 264 
3 235 266 236 
3 266 235 265 
3 236 267 237 
3 267 236 266 
3 237 268 238 
3 268 237 267 
3 238 269 239 
3 269 238 268 
3 239 270 240 
3 270 239 269 
3 240 241 211 
3 241 240 270 
3 241 272 242 
3 272 241 271 
3 242 273 243 
3 273 242 272 
3 243 274 244 
3 274 243 273 
3 244 275 245 
3 275 244 274 
3 245 276 246 
3 276 245 275 
3 246 277 247 
3 277 246 276 
3 247 278 248 
3 278 247 277 
3 248 279 249 
3 279 248 278 
3 249 280 250 
3 280 249 279 
3 250 281 251 
3 281 250 280 
3 251 282 252 
3 282 251 281 
3 252 283 253 
3 283 252 282 
3 253 284 254 
3 284 253 283 
3 254 285 255 
3 285 254 284 
3 255 286 256 
3 286 255 285 
3 256 287 257 
3 287 256 286 
3 257 288 258 
3 288 257 287 
3 258 289 259 
3 289 258 288 
3 259 290 260 
3 290 259 289 
3 260 291 261 
3 291 260 290 
3 261 292 262 
3 292 261 291 
3 262 293 263 
3 293 262 292 
3 263 294 264 
3 294 263 293 
3 264 295 265 
3 295 264 294 
3 265 296 266 
3 296 265 295 
3 266 297 267 
3 297 266 296 
3 267 298 268 
3 298 267 297 
3 268 299 269 
3 299 268 298 
3 269 300 270 
3 300 269 299 
3 270 271 241 
3 271 270 300 
3 271 302 272 
3 302 271 301 
3 272 303 273 
3 303 272 302 
3 273 304 274 
3 304 273 303 
3 274 305 275 
3 305 274 304 
3 275 306 276 
3 306 275 305 
3 276 307 277 
3 307 276 306 
3 277 308 278 
3 308 277 307 
3 278 309 279 
3 309 278 308 
3 279 310 280 
3 310 279 309 
3 280 311 281 
3 311 280 310 
3 281 312 282 
3 312 281 311 
3 282 313 283 
3 313 282 312 
3 283 314 284 
3 314 283 313 
3 284 315 285 
3 315 284 314 
3 285 316 286 
3 316 285 315 
3 286 317 287 
3 317 286 316 
3 287 318 288 
3 318 287 317 
3 288 319 289 
3 319 288 318 
3 289 320 290 
3 320 289 319 
3 290 321 291 
3 321 290 320 
3 291 322 292 
3 322 291 321 
3 292 323 293 
3 323 292 322 
3 293 324 294 
3 324 293 323 
3 294 325 295 
3 325 294 324 
3 295 326 296 
3 326 295 325 
3 296 327 297 
3 327 296 326 
3 297 328 298 
3 328 297 327 
3 298 329 299 
3 329 298 328 
3 299 330 300 
3 330 299 329 
3 300 301 271 
3 301 300 330 
3 301 332 302 
3 332 301 331 
3 302 333 303 
3 333 302 332 
3 303 334 304 
3 334 303 333 
3 304 335 305 
3 335 304 334 
3 305 336 306 
3 336 305 335 
3 306 337 307 
3 337 306 336 
3 307 338 308 
3 338 307 337 
3 308 339 309 
3 339 308 338 
3 309 340 310 
3 340 309 339 
3 310 341 311 
3 341 310 340 
3 311 342 312 
3 342 311 341 
3 312 343 313 
3 343 312 342 
3 313 344 314 
3 344 313 343 
3 314 345 315 
3 345 314 344 
3 315 346 316 
3 346 315 345 
3 316 347 317 
3 347 316 346 
3 317 348 318 
3 348 317 347 
3 318 349 319 
3 349 318 348 
3 319 350 320 
3 350 319 349 
3 320 351 321 
3 351 320 350 
3 321 352 322 
3 352 321 351 
3 322 353 323 
3 353 322 352 
3 323 354 324 
3 354 323 353 
3 324 355 325 
3 355 324 354 
3 325 356 326 
3 356 325 355 
3 326 357 327 
3 357 326 356 
3 327 358 328 
3 358 327 357 
3 328 359 329 
3 359 328 358 
3 329 360 330 
3 360 329 359 
3 330 331 301 
3 331 330 360 
3 331 362 332 
3 362 331 361 
3 332 363 333 
3 363 332 362 
3 333 364 334 
3 364 333 363 
3 334 365 335 
3 365 334 364 
3 335 366 336 
3 366 335 365 
3 336 367 337 
3 367 336 366 
3 337 368 338 
3 368 337 367 
3 338 369 339 
3 369 338 368 
3 339 370 340 
3 370 339 369 
3 340 371 341 
3 371 340 370 
3 341 372 342 
3 372 341 371 
3 342 373 343 
3 373 342 372 
3 343 374 344 
3 374 343 373 
3 344 375 345 
3 375 344 374 
3 345 376 346 
3 376 345 375 
3 346 377 347 
3 377 346 376 
3 347 378 348 
3 378 347 377 
3 348 379 349 
3 379 348 378 
3 349 380 350 
3 380 349 379 
3 350 381 351 
3 381 350 380 
3 351 382 352 
3 382 351 381 
3 352 383 353 
3 383 352 382 
3 353 384 354 
3 384 353 383 
3 354 385 355 
3 385 354 384 
3 355 386 356 
3 386 355 385 
3 356 387 357 
3 387 356 386 
3 357 388 358 
3 388 357 387 
3 358 389 359 
3 389 358 388 
3 359 390 360 
3 390 359 389 
3 360 361 331 
3 361 360 390 
3 361 392 362 
3 392 361 391 
3 362 393 363 
3 393 362 392 
3 363 394 364 
3 394 363 393 
3 364 395 365 
3 395 364 394 
3 365 396 366 
3 396 365 395 
3 366 397 367 
3 397 366 396 
3 367 398 368 
3 398 367 397 
3 368 399 369 
3 399 368 398 
3 369 400 370 
3 400 369 399 
3 370 401 371 
3 401 370 400 
3 371 402 372 
3 402 371 401 
3 372 403 373 
3 403 372 402 
3 373 404 374 
3 404 373 403 
3 374 405 375 
3 405 374 404 
3 375 406 376 
3 406 375 405 
3 376 407 377 
3 407 376 406 
3 377 408 378 
3 408 377 407 
3 378 409 379 
3 409 378 408 
3 379 410 380 
3 410 379 409 
3 380 411 381 
3 411 380 410 
3 381 412 382 
3 412 381 411 
3 382 413 383 
3 413 382 412 
3 383 414 384 
3 414 383 413 
3 384 415 385 
3 415 384 414 
3 385 416 386 
3 416 385 415 
3 386 417 387 
3 417 386 416 
3 387 418 388 
3 418 387 417 
3 388 419 389 
3 419 388 418 
3 389 420 390 
3 420 389 419 
3 390 391 361 
3 391 390 420 
3 391 421 392 
3 392 421 393 
3 393 421 394 
3 394 421 395 
3 395 421 396 
3 396 421 397 
3 397 421 398 
3 398 421 399 
3 399 421 400 
3 400 421 401 
3 401 421 402 
3 402 421 403 
3 403 421 404 
3 404 421 405 
3 405 421 406 
3 406 421 407 
3 407 421 408 
3 408 421 409 
3 409 421 410 
3 410 421 411 
3 411 421 412 
3 412 421 413 
3 413 421 414 
3 414 421 415 
3 415 421 416 
3 416 421 417 
3 417 421 418 
3 418 421 419 
3 419 421 420 
3 420 421 391 
